# xmcd
#
# Track frame offsets:
#	150
#	14265
#	27902
#	39892
#	54925
#	68447
#	80220
#	90677
#	100640
#	110327
#	123730
#	137122
#	146642
#	159062
#	172447
#	180760
#	189932
#	207107
#	216390
#	226937
#	246760
#	256970
#	270845
#	282367
#	298922
#	310327
#	322897
#
# Disc length: 4531
#
# Revision: 1
# Processed by: cddbd v1.5.1PL0 Copyright (c) Steve Scherf et al.
# Submitted via: ExactAudioCopy v0.95a4
# Normalized: r0:TDELIM( - )
#
DISCID=7611b11b
DTITLE=Bil Monroe - Blue Grass 1970-1979 - Volume 2 Bean Blossom 1974
DYEAR=1994
DGENRE=Country
TTITLE0=Jimmy Martin - Bit Parade of Love
TTITLE1=Jimmy Martin - Mary Ann
TTITLE2=Jimmy Martin - Sunny Side Of The Mountain
TTITLE3=Jimmy Martin - Freeborn Man
TTITLE4=Jimmy Martin - Tennessee
TTITLE5=James Monroe - Love Please Come Home
TTITLE6=James Monroe - Train
TTITLE7=James Monroe - Bonny
TTITLE8=James Monroe - When My Blue Mooon Turns To Gold Again
TTITLE9=Jim and Jesse - Ole Slew Foot
TTITLE10=Jim and Jesse - Sweet Little Miss Blue Eyes
TTITLE11=Jim and Jesse - Please Be My Love
TTITLE12=Jim and Jesse - I Wish You Knew
TTITLE13=Lester Flatt - Roll In My Sweet Baby's Arms
TTITLE14=Lester Flatt - Feudin' Banjos
TTITLE15=Lester Flatt - Ballad of Jed Clampett
TTITLE16=Bill Monore - Mule Skinner Blues ( Blue Yodel #8)
TTITLE17=Bill Monore - You Won't Be Satisified That Way
TTITLE18=Bill Monore - Uncle Pen
TTITLE19=Bill Monore - Blue Moon Of Kentucky
TTITLE20=Bill and James Monore - Roll On Budy
TTITLE21=Bill Monroe and Jim and Jesse - I Wonder Where You Are Tonight
TTITLE22=Bill Monore and Carl Jackson - Orange Blossom Special
TTITLE23=Bill Monore and Carl Jackson - Down Yonder
TTITLE24=Bill Monore and Carl Jackson - Soldier's Joy
TTITLE25=Bill Monore and Carl Jackson - Grey Eagle
TTITLE26=Bill Monore and Carl Jackson - Swing Low, Sweet Chariot
EXTD=
EXTT0=
EXTT1=
EXTT2=
EXTT3=
EXTT4=
EXTT5=
EXTT6=
EXTT7=
EXTT8=
EXTT9=
EXTT10=
EXTT11=
EXTT12=
EXTT13=
EXTT14=
EXTT15=
EXTT16=
EXTT17=
EXTT18=
EXTT19=
EXTT20=
EXTT21=
EXTT22=
EXTT23=
EXTT24=
EXTT25=
EXTT26=
PLAYORDER=
